<?xml version="1.0" encoding="utf-8"?>
<svg width="43px" height="27px" viewbox="0 0 43 27" version="1.1" xmlns:xlink="http://www.w3.org/1999/xlink" xmlns="http://www.w3.org/2000/svg">
  <g id="Visa">
    <path d="M39.6053 0L3.39474 0C1.47105 0 0 1.4625 0 3.375L0 23.625C0 25.5375 1.58421 27 3.39474 27L39.6053 27C41.5289 27 43 25.5375 43 23.625L43 3.375C43 1.4625 41.4158 0 39.6053 0Z" id="Path" fill="#000000" fill-opacity="0.07" stroke="none" />
    <path d="M38.7222 0C39.975 0 41 1.02273 41 2.27273L41 22.7273C41 23.9773 39.975 25 38.7222 25L2.27778 25C1.025 25 0 23.9773 0 22.7273L0 2.27273C0 1.02273 1.025 0 2.27778 0L38.7222 0" transform="translate(1 1)" id="Path" fill="#FFFFFF" stroke="none" />
    <path d="M25.7905 2.36255L25.4584 2.36255C25.0157 3.48755 24.6836 4.05005 24.3516 5.73755L26.4546 5.73755C26.1226 4.05005 26.1226 3.26255 25.7905 2.36255L25.7905 2.36255ZM29.0001 9L27.1184 9C27.0077 9 27.0077 9 26.897 8.8875L26.6756 7.875L26.565 7.65L23.9085 7.65C23.7978 7.65 23.6871 7.65 23.6871 7.875L23.355 8.8875C23.355 9 23.2443 9 23.2443 9L20.9199 9L21.1413 8.4375L24.3512 0.7875C24.3512 0.225 24.6833 0 25.2367 0L26.897 0C27.0077 0 27.1184 0 27.1184 0.225L28.668 7.5375C28.7787 7.9875 28.8894 8.325 28.8894 8.775C29.0001 8.8875 29.0001 8.8875 29.0001 9ZM14.168 8.6625L14.6107 6.6375C14.7214 6.6375 14.8321 6.75 14.8321 6.75C15.6069 7.0875 16.3817 7.3125 17.1565 7.2C17.3779 7.2 17.71 7.0875 17.9313 6.975C18.4848 6.75 18.4848 6.1875 18.042 5.7375C17.8206 5.5125 17.4886 5.4 17.1565 5.175C16.7138 4.95 16.271 4.725 15.939 4.3875C14.6107 3.2625 15.0535 1.6875 15.8283 0.9C16.4924 0.45 16.8245 0 17.71 0C19.0382 0 20.4771 0 21.1413 0.225L21.2519 0.225C21.1413 0.9 21.0306 1.4625 20.8092 2.1375C20.2558 1.9125 19.7023 1.6875 19.1489 1.6875C18.8168 1.6875 18.4848 1.6875 18.1527 1.8C17.9313 1.8 17.8206 1.9125 17.71 2.025C17.4886 2.25 17.4886 2.5875 17.71 2.8125L18.2634 3.2625C18.7061 3.4875 19.1489 3.7125 19.4809 3.9375C20.0344 4.275 20.5878 4.8375 20.6985 5.5125C20.9199 6.525 20.5878 7.425 19.7023 8.1C19.1489 8.55 18.9275 8.775 18.1527 8.775C16.6031 8.775 15.3855 8.8875 14.3893 8.55C14.2787 8.775 14.2787 8.775 14.168 8.6625L14.168 8.6625ZM10.2939 9C10.4046 8.2125 10.4046 8.2125 10.5153 7.875C11.0688 5.4 11.6222 2.8125 12.0649 0.3375C12.1756 0.1125 12.1756 0 12.397 0L14.3894 0C14.168 1.35 13.9466 2.3625 13.6146 3.6C13.2825 5.2875 12.9504 6.975 12.5077 8.6625C12.5077 8.8875 12.397 8.8875 12.1756 8.8875M0 0.225C0 0.1125 0.221374 0 0.332061 0L4.09542 0C4.64885 0 5.0916 0.3375 5.20229 0.9L6.19847 5.85C6.19847 5.9625 6.19847 5.9625 6.30916 6.075C6.30916 5.9625 6.41985 5.9625 6.41985 5.9625L8.74428 0.225C8.63359 0.1125 8.74428 0 8.85496 0L11.1794 0C11.1794 0.1125 11.1794 0.1125 11.0687 0.225L7.6374 8.4375C7.52672 8.6625 7.52672 8.775 7.41603 8.8875C7.30534 9 7.08397 8.8875 6.8626 8.8875L5.20229 8.8875C5.0916 8.8875 4.98092 8.8875 4.98092 8.6625L3.20992 1.6875C2.98855 1.4625 2.65649 1.125 2.21374 1.0125C1.54962 0.675 0.332061 0.45 0.110687 0.45L0 0.225Z" transform="translate(7 9)" id="Shape" fill="#142688" stroke="none" />
  </g>
</svg>